<?xml version="1.0" encoding="utf-8"?>
<!-- Generator: Adobe Illustrator 15.0.0, SVG Export Plug-In . SVG Version: 6.00 Build 0)  -->
<!DOCTYPE svg PUBLIC "-//W3C//DTD SVG 1.1//EN" "http://www.w3.org/Graphics/SVG/1.1/DTD/svg11.dtd">
<svg version="1.1" id="Layer_1" xmlns="http://www.w3.org/2000/svg" xmlns:xlink="http://www.w3.org/1999/xlink" x="0px" y="0px"
	 width="185px" height="188px" viewBox="0 0 185 188" enable-background="new 0 0 185 188" xml:space="preserve">
<text transform="matrix(1 0 0 1 191.4912 35.7061)" fill="#4E4E4E" font-family="'OpenSans-ExtraboldItalic'" font-size="24">Drugs</text>
<text transform="matrix(1 0 0 1 299.3486 35.7056)" fill="#4E4E4E" font-family="'OpenSans-ExtraboldItalic'" font-size="24">Dirt</text>
<text transform="matrix(1 0 0 1 256.1582 34.4473)" fill="#FA3838" font-family="'OpenSansLight-Italic'" font-size="17.6593"> from</text>
<text transform="matrix(1 0 0 1 191.4912 100.3564)" fill="#4E4E4E" font-family="'OpenSans-ExtraboldItalic'" font-size="24">Drugs</text>
<text transform="matrix(1 0 0 1 299.3486 100.3555)" fill="#4E4E4E" font-family="'OpenSans-ExtraboldItalic'" font-size="24">Dirt</text>
<text transform="matrix(1 0 0 1 256.1582 99.0977)" fill="#FB6A6A" font-family="'OpenSansLight-Italic'" font-size="17.6593"> from</text>
<text transform="matrix(1 0 0 1 361.9463 171.4473)" fill="#E6E6E5" font-family="'OpenSans-ExtraboldItalic'" font-size="24">Drugs</text>
<text transform="matrix(1 0 0 1 469.8037 171.4473)" fill="#E6E6E5" font-family="'OpenSans-ExtraboldItalic'" font-size="24">Dirt</text>
<text transform="matrix(1 0 0 1 426.6133 170.1895)" fill="#FD9B9B" font-family="'OpenSansLight-Italic'" font-size="17.6593"> from</text>
<g>
	<g>
		<path fill="#4E4E4E" d="M24.432,24.95c0,2.479-0.438,4.627-1.314,6.446c-0.876,1.818-2.149,3.21-3.817,4.175
			c-1.668,0.964-3.644,1.447-5.928,1.447H7.12l4.102-19.409h5.523c2.443,0,4.334,0.639,5.675,1.918
			C23.762,20.806,24.432,22.613,24.432,24.95z M14.156,32.717c0.974,0,1.843-0.311,2.609-0.93c0.766-0.62,1.361-1.502,1.786-2.648
			s0.637-2.454,0.637-3.923c0-1.106-0.239-1.945-0.717-2.516s-1.146-0.856-2.005-0.856h-0.942L13.24,32.717H14.156z"/>
		<path fill="#4E4E4E" d="M37.243,21.711c0.496,0,0.85,0.035,1.062,0.106l-1.115,5.085c-0.478-0.195-1.022-0.292-1.633-0.292
			c-0.912,0-1.639,0.312-2.184,0.936c-0.544,0.624-0.958,1.578-1.241,2.861l-1.408,6.611h-5.138l3.173-15.042h4.102l-0.239,2.509
			h0.107c0.575-0.991,1.199-1.702,1.871-2.131C35.274,21.925,36.155,21.711,37.243,21.711z"/>
		<path fill="#4E4E4E" d="M43.629,32.039c0,0.39,0.1,0.678,0.299,0.863c0.199,0.187,0.436,0.279,0.71,0.279
			c0.522,0,0.998-0.348,1.427-1.042c0.43-0.695,0.772-1.644,1.029-2.848l1.54-7.315h5.138l-3.173,15.042h-4.116l0.173-2.097H46.55
			c-0.478,0.823-1.046,1.423-1.706,1.799c-0.659,0.376-1.471,0.564-2.436,0.564c-1.248,0-2.221-0.378-2.921-1.135
			c-0.699-0.757-1.048-1.799-1.048-3.126c0-0.938,0.11-1.952,0.332-3.041l1.686-8.005h5.138l-1.712,8.191
			C43.713,30.894,43.629,31.517,43.629,32.039z"/>
		<path fill="#4E4E4E" d="M70.473,21.976l-0.544,2.748l-2.125,0.69c0.088,0.354,0.132,0.77,0.132,1.248
			c0,1.69-0.575,3.056-1.725,4.095c-1.151,1.041-2.651,1.561-4.501,1.561c-0.673,0-1.222-0.058-1.646-0.173
			c-0.177,0.098-0.328,0.195-0.452,0.292c-0.124,0.098-0.186,0.23-0.186,0.398c0,0.38,0.492,0.642,1.474,0.783l1.819,0.239
			c1.54,0.222,2.646,0.626,3.319,1.215c0.672,0.589,1.009,1.427,1.009,2.516c0,1.903-0.746,3.373-2.237,4.408
			c-1.491,1.035-3.609,1.553-6.353,1.553c-1.876,0-3.37-0.334-4.48-1.002c-1.111-0.668-1.667-1.595-1.667-2.781
			c0-0.867,0.301-1.615,0.903-2.244c0.602-0.629,1.54-1.151,2.814-1.567c-0.327-0.204-0.595-0.469-0.803-0.796
			c-0.208-0.327-0.312-0.677-0.312-1.049c0-0.628,0.226-1.186,0.677-1.673c0.451-0.487,1.124-0.934,2.018-1.341
			c-1.16-0.912-1.739-2.155-1.739-3.73c0-1.735,0.602-3.111,1.806-4.129c1.203-1.018,2.832-1.526,4.885-1.526
			c0.452,0,0.927,0.026,1.427,0.079s0.896,0.115,1.188,0.186H70.473z M56.693,39.036c0,0.761,0.752,1.141,2.257,1.141
			c1.106,0,1.949-0.128,2.529-0.385c0.58-0.257,0.869-0.62,0.869-1.089c0-0.318-0.146-0.56-0.438-0.723
			c-0.292-0.164-0.801-0.286-1.527-0.365l-1.527-0.159c-0.69,0.097-1.223,0.281-1.6,0.551C56.881,38.277,56.693,38.62,56.693,39.036
			z M60.715,27.831c0,0.832,0.296,1.248,0.889,1.248c0.46,0,0.839-0.303,1.135-0.91c0.297-0.606,0.445-1.307,0.445-2.104
			c0-0.841-0.27-1.261-0.81-1.261c-0.336,0-0.628,0.148-0.876,0.445c-0.248,0.296-0.44,0.684-0.577,1.162
			C60.784,26.888,60.715,27.362,60.715,27.831z"/>
		<path fill="#4E4E4E" d="M81.107,31.8c0,1.761-0.576,3.116-1.726,4.062c-1.151,0.947-2.806,1.42-4.965,1.42
			c-1.965,0-3.541-0.278-4.727-0.836v-4.128c0.814,0.442,1.571,0.752,2.27,0.929c0.699,0.177,1.407,0.265,2.124,0.265
			c0.602,0,1.053-0.082,1.354-0.245c0.301-0.164,0.452-0.392,0.452-0.684c0-0.31-0.115-0.577-0.345-0.803
			c-0.23-0.226-0.806-0.6-1.726-1.122c-0.938-0.513-1.622-1.102-2.051-1.766s-0.644-1.474-0.644-2.43
			c0-1.522,0.536-2.695,1.606-3.518s2.593-1.234,4.567-1.234c0.992,0,1.894,0.115,2.708,0.345c0.814,0.23,1.607,0.584,2.376,1.062
			l-1.606,3.346c-0.583-0.38-1.188-0.684-1.812-0.91c-0.624-0.225-1.162-0.338-1.613-0.338c-0.673,0-1.009,0.3-1.009,0.902
			c0,0.257,0.14,0.482,0.418,0.677s0.733,0.447,1.36,0.756C80.111,28.543,81.107,29.959,81.107,31.8z"/>
	</g>
	<g>
		<path fill="#4E4E4E" d="M146.624,24.949c0,2.479-0.438,4.627-1.313,6.446c-0.877,1.819-2.148,3.21-3.817,4.175
			c-1.669,0.964-3.644,1.447-5.928,1.447h-6.253l4.102-19.41h5.523c2.442,0,4.334,0.64,5.676,1.919
			C145.954,20.805,146.624,22.613,146.624,24.949z M136.349,32.716c0.974,0,1.843-0.31,2.608-0.929
			c0.766-0.62,1.361-1.502,1.786-2.648c0.425-1.146,0.637-2.454,0.637-3.923c0-1.106-0.238-1.945-0.717-2.516
			c-0.478-0.571-1.146-0.856-2.004-0.856h-0.943l-2.283,10.873H136.349z"/>
		<path fill="#4E4E4E" d="M152.917,37.017h-5.138l3.173-15.042h5.165L152.917,37.017z M151.576,18.67
			c0-0.912,0.264-1.602,0.79-2.071c0.526-0.469,1.264-0.703,2.211-0.703c0.805,0,1.427,0.161,1.865,0.484
			c0.438,0.323,0.657,0.785,0.657,1.387c0,0.886-0.258,1.569-0.771,2.052s-1.253,0.724-2.218,0.724
			C152.422,20.542,151.576,19.918,151.576,18.67z"/>
		<path fill="#4E4E4E" d="M168.277,21.71c0.496,0,0.851,0.036,1.062,0.106l-1.115,5.085c-0.479-0.195-1.022-0.292-1.633-0.292
			c-0.912,0-1.64,0.312-2.185,0.936c-0.545,0.625-0.957,1.578-1.241,2.861l-1.407,6.611h-5.138l3.173-15.042h4.103l-0.239,2.509
			h0.106c0.575-0.991,1.199-1.701,1.871-2.131C166.308,21.925,167.188,21.71,168.277,21.71z"/>
		<path fill="#4E4E4E" d="M175.725,33.154c0.585,0,1.395-0.208,2.43-0.624v3.864c-1.203,0.593-2.707,0.889-4.514,0.889
			c-1.31,0-2.303-0.281-2.98-0.843c-0.677-0.562-1.015-1.485-1.015-2.768c0-0.673,0.105-1.505,0.318-2.496l1.115-5.337h-2.045
			l0.544-2.522l2.895-1.168l1.818-3.186h3.426l-0.651,3.014h3.824l-0.836,3.863h-3.837l-1.115,5.085
			c-0.142,0.681-0.213,1.146-0.213,1.394C174.889,32.875,175.168,33.154,175.725,33.154z"/>
	</g>
	<g>
		<path fill="#FA3838" d="M83.859,40.397c-0.312,0-0.644-0.062-0.996-0.186v-0.878c0.345,0.104,0.67,0.156,0.977,0.156
			c0.574,0,1.009-0.172,1.309-0.518c0.3-0.345,0.543-0.95,0.732-1.817l2.404-11.391h-2.003l0.138-0.654l2.003-0.137l0.341-1.563
			c0.228-1.093,0.607-1.888,1.137-2.383c0.531-0.495,1.272-0.742,2.223-0.742c0.476,0,1.016,0.101,1.623,0.303l-0.244,0.781
			c-0.568-0.176-1.047-0.264-1.437-0.264c-0.625,0-1.125,0.173-1.499,0.522c-0.375,0.348-0.649,0.929-0.826,1.743l-0.341,1.602
			h2.421l-0.156,0.791h-2.422L86.78,37.389c-0.215,1.048-0.554,1.812-1.016,2.291C85.301,40.159,84.667,40.397,83.859,40.397z"/>
		<path fill="#FA3838" d="M97.753,24.788c0.449,0,0.85,0.046,1.202,0.137l-0.206,0.908c-0.307-0.098-0.674-0.146-1.104-0.146
			c-0.612,0-1.195,0.208-1.749,0.625c-0.555,0.417-1.053,1.042-1.495,1.875c-0.443,0.834-0.77,1.736-0.978,2.707l-0.977,4.698H91.49
			l2.256-10.619h0.782l-0.283,1.992h0.058c0.476-0.612,0.876-1.053,1.204-1.323c0.324-0.27,0.671-0.48,1.039-0.629
			C96.914,24.863,97.316,24.788,97.753,24.788z"/>
		<path fill="#FA3838" d="M104.473,24.769c1.173,0,2.08,0.353,2.721,1.06c0.642,0.708,0.963,1.682,0.963,2.925
			c0,1.284-0.232,2.483-0.698,3.6c-0.466,1.118-1.102,1.968-1.909,2.555s-1.739,0.879-2.795,0.879c-1.198,0-2.107-0.357-2.729-1.07
			c-0.623-0.713-0.934-1.735-0.934-3.062c0-1.245,0.237-2.41,0.713-3.498s1.117-1.925,1.925-2.511
			C102.536,25.062,103.45,24.769,104.473,24.769z M104.396,25.608c-0.808,0-1.533,0.256-2.179,0.767
			c-0.645,0.511-1.159,1.245-1.543,2.198c-0.386,0.954-0.576,1.965-0.576,3.034c0,2.227,0.918,3.34,2.754,3.34
			c0.827,0,1.562-0.252,2.203-0.756c0.642-0.505,1.153-1.247,1.534-2.228c0.38-0.98,0.571-2.057,0.571-3.229
			c0-1.003-0.237-1.774-0.713-2.315C105.971,25.878,105.287,25.608,104.396,25.608z"/>
		<path fill="#FA3838" d="M116.059,35.592l1.436-6.583c0.163-0.815,0.245-1.343,0.245-1.583c0-1.185-0.503-1.778-1.505-1.778
			c-0.69,0-1.342,0.22-1.953,0.66c-0.612,0.44-1.13,1.054-1.555,1.842c-0.423,0.788-0.749,1.723-0.977,2.803l-0.977,4.64h-0.957
			l2.256-10.619h0.782l-0.323,2.051h0.059c0.521-0.736,1.112-1.289,1.773-1.661c0.661-0.371,1.354-0.557,2.075-0.557
			c0.69,0,1.222,0.218,1.593,0.655c0.372,0.436,0.567,1.071,0.587,1.904h0.059c0.501-0.839,1.09-1.476,1.768-1.91
			c0.678-0.432,1.4-0.649,2.169-0.649c0.762,0,1.355,0.201,1.782,0.601c0.426,0.401,0.64,0.976,0.64,1.725
			c0,0.188-0.007,0.373-0.023,0.551c-0.018,0.18-0.08,0.569-0.191,1.168l-1.484,6.74h-0.978l1.456-6.643
			c0.163-0.782,0.244-1.354,0.244-1.719c0-0.501-0.14-0.891-0.419-1.168c-0.28-0.276-0.669-0.416-1.163-0.416
			c-1.022,0-1.927,0.448-2.711,1.344c-0.785,0.895-1.334,2.075-1.646,3.54l-1.064,5.061H116.059z"/>
	</g>
</g>
<g>
	<g>
		<path fill="#4E4E4E" d="M24.433,89.773c0,2.479-0.438,4.627-1.314,6.445c-0.876,1.819-2.148,3.211-3.817,4.176
			s-3.645,1.447-5.928,1.447H7.12l4.103-19.41h5.523c2.443,0,4.335,0.64,5.676,1.918S24.433,87.437,24.433,89.773z M14.157,97.54
			c0.974,0,1.843-0.311,2.609-0.93s1.361-1.501,1.786-2.648c0.425-1.146,0.637-2.454,0.637-3.923c0-1.106-0.239-1.945-0.717-2.516
			c-0.478-0.571-1.146-0.856-2.005-0.856h-0.943L13.241,97.54H14.157z"/>
		<path fill="#4E4E4E" d="M37.245,86.534c0.496,0,0.85,0.035,1.062,0.106l-1.115,5.085c-0.478-0.195-1.022-0.292-1.633-0.292
			c-0.912,0-1.64,0.312-2.184,0.936s-0.958,1.578-1.241,2.86l-1.408,6.612h-5.138L28.761,86.8h4.103l-0.239,2.509h0.106
			c0.575-0.991,1.199-1.701,1.872-2.131C35.275,86.749,36.156,86.534,37.245,86.534z"/>
		<path fill="#4E4E4E" d="M43.631,96.862c0,0.39,0.099,0.678,0.298,0.863s0.436,0.279,0.71,0.279c0.522,0,0.998-0.348,1.427-1.043
			c0.429-0.694,0.772-1.644,1.029-2.847l1.54-7.315h5.138l-3.173,15.042h-4.116l0.173-2.098h-0.106
			c-0.478,0.822-1.046,1.422-1.706,1.799c-0.659,0.376-1.471,0.563-2.436,0.563c-1.248,0-2.222-0.378-2.921-1.135
			s-1.049-1.799-1.049-3.127c0-0.938,0.111-1.951,0.332-3.039l1.686-8.006h5.138l-1.713,8.192
			C43.715,95.717,43.631,96.341,43.631,96.862z"/>
		<path fill="#4E4E4E" d="M70.476,86.8l-0.544,2.748l-2.125,0.69c0.088,0.354,0.133,0.77,0.133,1.248
			c0,1.69-0.575,3.057-1.726,4.095c-1.15,1.04-2.651,1.561-4.5,1.561c-0.673,0-1.222-0.058-1.646-0.173
			c-0.177,0.098-0.328,0.195-0.451,0.292c-0.124,0.098-0.186,0.23-0.186,0.398c0,0.381,0.491,0.642,1.474,0.783l1.819,0.239
			c1.54,0.221,2.646,0.626,3.319,1.215c0.672,0.589,1.009,1.427,1.009,2.516c0,1.903-0.746,3.372-2.237,4.408
			c-1.492,1.035-3.609,1.553-6.353,1.553c-1.876,0-3.37-0.334-4.481-1.002c-1.11-0.668-1.666-1.596-1.666-2.781
			c0-0.867,0.301-1.615,0.903-2.244c0.602-0.628,1.54-1.15,2.814-1.566c-0.327-0.204-0.595-0.469-0.803-0.797
			c-0.208-0.327-0.312-0.677-0.312-1.049c0-0.628,0.226-1.186,0.677-1.673c0.451-0.486,1.124-0.934,2.018-1.341
			c-1.16-0.91-1.739-2.155-1.739-3.73c0-1.735,0.602-3.111,1.806-4.129c1.204-1.018,2.833-1.527,4.886-1.527
			c0.451,0,0.927,0.026,1.427,0.08s0.896,0.115,1.188,0.186H70.476z M56.695,103.859c0,0.761,0.752,1.142,2.257,1.142
			c1.106,0,1.95-0.128,2.529-0.385s0.87-0.62,0.87-1.089c0-0.318-0.146-0.56-0.438-0.724c-0.292-0.163-0.801-0.285-1.527-0.365
			l-1.527-0.159c-0.69,0.098-1.224,0.281-1.6,0.551C56.883,103.101,56.695,103.443,56.695,103.859z M60.718,92.654
			c0,0.832,0.296,1.248,0.889,1.248c0.46,0,0.839-0.303,1.135-0.909s0.445-1.308,0.445-2.104c0-0.841-0.27-1.261-0.81-1.261
			c-0.336,0-0.628,0.148-0.876,0.445c-0.248,0.296-0.44,0.684-0.578,1.162S60.718,92.186,60.718,92.654z"/>
		<path fill="#4E4E4E" d="M81.11,96.624c0,1.761-0.575,3.115-1.726,4.062c-1.15,0.947-2.806,1.42-4.965,1.42
			c-1.965,0-3.541-0.278-4.727-0.836v-4.129c0.814,0.442,1.571,0.752,2.271,0.929c0.699,0.178,1.407,0.266,2.124,0.266
			c0.602,0,1.053-0.081,1.354-0.245c0.301-0.164,0.451-0.392,0.451-0.684c0-0.31-0.115-0.578-0.345-0.804s-0.805-0.6-1.726-1.122
			c-0.938-0.512-1.622-1.101-2.051-1.765c-0.43-0.664-0.644-1.474-0.644-2.43c0-1.522,0.535-2.695,1.606-3.519
			c1.071-0.823,2.593-1.234,4.567-1.234c0.991,0,1.894,0.115,2.708,0.345c0.814,0.23,1.606,0.584,2.376,1.062l-1.606,3.346
			c-0.584-0.381-1.188-0.684-1.812-0.91c-0.624-0.226-1.162-0.338-1.613-0.338c-0.673,0-1.009,0.301-1.009,0.903
			c0,0.257,0.14,0.482,0.418,0.677c0.279,0.194,0.732,0.447,1.361,0.757C80.115,93.367,81.11,94.784,81.11,96.624z"/>
	</g>
	<g>
		<path fill="#4E4E4E" d="M146.63,89.773c0,2.479-0.438,4.627-1.314,6.446c-0.876,1.819-2.148,3.211-3.816,4.176
			c-1.669,0.965-3.645,1.447-5.929,1.447h-6.253l4.103-19.411h5.523c2.442,0,4.334,0.639,5.676,1.918
			C145.96,85.628,146.63,87.437,146.63,89.773z M136.354,97.54c0.975,0,1.844-0.311,2.609-0.93s1.36-1.503,1.785-2.648
			c0.426-1.146,0.638-2.454,0.638-3.923c0-1.106-0.239-1.945-0.717-2.516s-1.146-0.856-2.005-0.856h-0.942l-2.284,10.874H136.354z"
			/>
		<path fill="#4E4E4E" d="M152.923,101.842h-5.138l3.173-15.043h5.165L152.923,101.842z M151.582,83.493
			c0-0.912,0.264-1.602,0.79-2.071c0.526-0.469,1.264-0.704,2.211-0.704c0.805,0,1.427,0.162,1.865,0.485
			c0.438,0.323,0.657,0.785,0.657,1.387c0,0.885-0.257,1.569-0.771,2.051c-0.513,0.482-1.252,0.724-2.217,0.724
			C152.428,85.365,151.582,84.741,151.582,83.493z"/>
		<path fill="#4E4E4E" d="M168.284,86.534c0.495,0,0.85,0.035,1.062,0.106l-1.114,5.085c-0.479-0.195-1.022-0.292-1.634-0.292
			c-0.911,0-1.64,0.312-2.184,0.936c-0.545,0.624-0.958,1.578-1.241,2.861l-1.407,6.612h-5.139l3.174-15.043h4.102l-0.238,2.509
			h0.106c0.575-0.991,1.199-1.702,1.872-2.131C166.314,86.748,167.195,86.534,168.284,86.534z"/>
		<path fill="#4E4E4E" d="M175.732,97.978c0.584,0,1.394-0.208,2.43-0.624v3.864c-1.204,0.593-2.709,0.889-4.515,0.889
			c-1.31,0-2.303-0.28-2.98-0.843c-0.677-0.562-1.016-1.484-1.016-2.768c0-0.673,0.106-1.505,0.319-2.496l1.115-5.337h-2.045
			l0.544-2.522l2.895-1.168l1.819-3.187h3.425l-0.65,3.014h3.823l-0.836,3.864h-3.837l-1.115,5.084
			c-0.142,0.682-0.213,1.146-0.213,1.395C174.896,97.699,175.175,97.978,175.732,97.978z"/>
	</g>
	<g>
		<path fill="#FB6A6A" d="M83.862,105.223c-0.312,0-0.644-0.062-0.996-0.187v-0.878c0.345,0.104,0.67,0.154,0.977,0.154
			c0.573,0,1.009-0.172,1.309-0.518c0.3-0.345,0.543-0.949,0.732-1.816l2.403-11.391h-2.002l0.137-0.654l2.003-0.137l0.342-1.563
			c0.228-1.093,0.607-1.889,1.137-2.383c0.531-0.494,1.272-0.742,2.223-0.742c0.476,0,1.017,0.101,1.624,0.303l-0.245,0.781
			c-0.567-0.176-1.046-0.264-1.437-0.264c-0.625,0-1.125,0.174-1.499,0.522c-0.375,0.349-0.649,0.929-0.826,1.744l-0.342,1.602
			h2.422l-0.156,0.791h-2.423l-2.461,11.625c-0.215,1.049-0.553,1.812-1.016,2.29C85.305,104.983,84.669,105.223,83.862,105.223z"/>
		<path fill="#FB6A6A" d="M97.757,89.611c0.449,0,0.85,0.046,1.201,0.137l-0.205,0.908c-0.307-0.097-0.674-0.146-1.104-0.146
			c-0.611,0-1.195,0.208-1.748,0.625c-0.555,0.417-1.054,1.042-1.496,1.875c-0.442,0.834-0.769,1.735-0.977,2.706l-0.978,4.699
			h-0.957l2.257-10.619h0.782l-0.284,1.993h0.06c0.475-0.612,0.875-1.054,1.202-1.323c0.325-0.27,0.672-0.48,1.04-0.63
			C96.918,89.686,97.32,89.611,97.757,89.611z"/>
		<path fill="#FB6A6A" d="M104.477,89.592c1.173,0,2.08,0.353,2.721,1.06c0.642,0.707,0.963,1.682,0.963,2.925
			c0,1.284-0.232,2.482-0.698,3.6s-1.102,1.97-1.909,2.556c-0.808,0.587-1.739,0.879-2.795,0.879c-1.198,0-2.107-0.356-2.729-1.069
			c-0.623-0.715-0.934-1.734-0.934-3.062c0-1.245,0.237-2.41,0.714-3.498c0.475-1.087,1.116-1.925,1.924-2.511
			C102.54,89.885,103.455,89.592,104.477,89.592z M104.399,90.432c-0.808,0-1.533,0.256-2.179,0.767
			c-0.645,0.511-1.159,1.245-1.543,2.198c-0.385,0.954-0.576,1.965-0.576,3.035c0,2.226,0.918,3.339,2.755,3.339
			c0.826,0,1.561-0.253,2.202-0.757c0.643-0.505,1.153-1.246,1.534-2.227c0.38-0.979,0.571-2.057,0.571-3.229
			c0-1.003-0.237-1.775-0.713-2.316C105.975,90.702,105.291,90.432,104.399,90.432z"/>
		<path fill="#FB6A6A" d="M116.062,100.416l1.437-6.584c0.163-0.814,0.244-1.342,0.244-1.583c0-1.185-0.502-1.778-1.504-1.778
			c-0.69,0-1.343,0.22-1.954,0.659c-0.612,0.44-1.13,1.055-1.554,1.842s-0.749,1.723-0.977,2.804l-0.978,4.64h-0.957l2.257-10.619
			h0.782l-0.323,2.051h0.059c0.521-0.736,1.111-1.289,1.773-1.661c0.66-0.371,1.353-0.557,2.075-0.557
			c0.69,0,1.222,0.218,1.593,0.655c0.371,0.436,0.567,1.071,0.586,1.904h0.059c0.501-0.84,1.091-1.476,1.769-1.91
			c0.678-0.433,1.4-0.649,2.169-0.649c0.762,0,1.355,0.2,1.782,0.601c0.426,0.4,0.64,0.976,0.64,1.725
			c0,0.188-0.008,0.373-0.024,0.551c-0.017,0.179-0.079,0.569-0.19,1.168l-1.484,6.74h-0.977l1.456-6.643
			c0.162-0.782,0.243-1.354,0.243-1.719c0-0.501-0.14-0.891-0.42-1.167c-0.279-0.277-0.668-0.416-1.162-0.416
			c-1.022,0-1.927,0.448-2.711,1.344c-0.785,0.895-1.334,2.075-1.646,3.541l-1.065,5.061H116.062z"/>
	</g>
</g>
<g>
	<g>
		<path fill="#E6E6E5" d="M24.582,152.07c0,2.5-0.442,4.667-1.326,6.502c-0.884,1.834-2.167,3.238-3.85,4.211
			c-1.683,0.974-3.676,1.46-5.979,1.46H7.12l4.138-19.578h5.571c2.464,0,4.372,0.646,5.725,1.936S24.582,149.714,24.582,152.07z
			 M14.217,159.904c0.982,0,1.859-0.312,2.631-0.938c0.772-0.625,1.373-1.516,1.801-2.671c0.429-1.156,0.643-2.476,0.643-3.957
			c0-1.116-0.241-1.962-0.723-2.538c-0.482-0.576-1.156-0.863-2.022-0.863h-0.951l-2.303,10.967H14.217z"/>
		<path fill="#E6E6E5" d="M37.504,148.803c0.5,0,0.857,0.036,1.072,0.107l-1.125,5.129c-0.482-0.196-1.031-0.295-1.647-0.295
			c-0.919,0-1.653,0.315-2.203,0.944c-0.549,0.63-0.966,1.592-1.252,2.886l-1.419,6.669h-5.183l3.201-15.172h4.138l-0.241,2.53
			h0.107c0.58-0.999,1.209-1.716,1.888-2.148C35.518,149.02,36.407,148.803,37.504,148.803z"/>
		<path fill="#E6E6E5" d="M43.946,159.222c0,0.393,0.101,0.683,0.301,0.87s0.439,0.281,0.716,0.281c0.527,0,1.007-0.351,1.439-1.051
			c0.433-0.701,0.779-1.658,1.038-2.873l1.553-7.378h5.183l-3.201,15.172h-4.151l0.174-2.116h-0.107
			c-0.482,0.831-1.056,1.436-1.721,1.814c-0.665,0.38-1.484,0.569-2.457,0.569c-1.259,0-2.241-0.382-2.946-1.145
			c-0.705-0.764-1.058-1.814-1.058-3.153c0-0.946,0.111-1.969,0.334-3.067l1.701-8.074h5.183l-1.728,8.262
			C44.031,158.065,43.946,158.694,43.946,159.222z"/>
		<path fill="#E6E6E5" d="M71.022,149.071l-0.549,2.771l-2.143,0.696c0.089,0.357,0.134,0.777,0.134,1.259
			c0,1.705-0.58,3.082-1.741,4.132c-1.161,1.049-2.674,1.573-4.54,1.573c-0.679,0-1.232-0.059-1.661-0.174
			c-0.178,0.098-0.33,0.196-0.455,0.294c-0.125,0.099-0.188,0.232-0.188,0.402c0,0.384,0.496,0.646,1.486,0.79l1.834,0.24
			c1.554,0.224,2.669,0.632,3.348,1.226c0.679,0.594,1.018,1.439,1.018,2.538c0,1.919-0.752,3.401-2.256,4.445
			c-1.504,1.045-3.64,1.567-6.408,1.567c-1.893,0-3.399-0.338-4.52-1.012c-1.121-0.674-1.681-1.609-1.681-2.805
			c0-0.875,0.304-1.63,0.911-2.264s1.553-1.16,2.839-1.58c-0.331-0.205-0.601-0.473-0.81-0.804c-0.21-0.33-0.315-0.683-0.315-1.058
			c0-0.634,0.228-1.196,0.683-1.688c0.455-0.491,1.134-0.941,2.036-1.353c-1.17-0.919-1.754-2.174-1.754-3.763
			c0-1.75,0.607-3.138,1.821-4.165c1.214-1.026,2.856-1.54,4.928-1.54c0.456,0,0.935,0.027,1.439,0.081s0.904,0.116,1.199,0.188
			H71.022z M57.123,166.278c0,0.769,0.759,1.152,2.276,1.152c1.116,0,1.966-0.13,2.551-0.389s0.877-0.625,0.877-1.099
			c0-0.321-0.147-0.564-0.442-0.729c-0.294-0.165-0.808-0.288-1.54-0.368l-1.54-0.16c-0.697,0.098-1.234,0.283-1.614,0.556
			C57.312,165.513,57.123,165.859,57.123,166.278z M61.18,154.977c0,0.839,0.299,1.259,0.897,1.259c0.464,0,0.846-0.306,1.145-0.917
			c0.299-0.612,0.449-1.319,0.449-2.123c0-0.848-0.272-1.271-0.817-1.271c-0.339,0-0.634,0.149-0.884,0.448
			s-0.444,0.689-0.583,1.172C61.25,154.025,61.18,154.503,61.18,154.977z"/>
		<path fill="#E6E6E5" d="M81.749,158.98c0,1.776-0.581,3.143-1.741,4.098c-1.161,0.955-2.83,1.433-5.008,1.433
			c-1.982,0-3.571-0.281-4.768-0.844v-4.164c0.821,0.446,1.585,0.759,2.29,0.938s1.419,0.268,2.143,0.268
			c0.607,0,1.062-0.083,1.366-0.248c0.304-0.165,0.456-0.395,0.456-0.689c0-0.312-0.116-0.582-0.348-0.811
			c-0.232-0.228-0.812-0.604-1.741-1.131c-0.946-0.519-1.636-1.111-2.069-1.781c-0.433-0.67-0.649-1.486-0.649-2.45
			c0-1.536,0.54-2.719,1.621-3.549c1.08-0.83,2.616-1.246,4.606-1.246c1,0,1.911,0.116,2.732,0.349s1.62,0.589,2.397,1.071
			l-1.621,3.375c-0.589-0.385-1.198-0.69-1.828-0.918s-1.172-0.341-1.627-0.341c-0.679,0-1.018,0.303-1.018,0.91
			c0,0.259,0.141,0.486,0.422,0.683c0.281,0.197,0.739,0.451,1.373,0.764C80.745,155.695,81.749,157.124,81.749,158.98z"/>
	</g>
	<g>
		<path fill="#E6E6E5" d="M147.834,152.07c0,2.5-0.441,4.667-1.325,6.502c-0.884,1.834-2.167,3.238-3.851,4.211
			c-1.683,0.974-3.676,1.46-5.979,1.46h-6.308l4.138-19.578h5.571c2.464,0,4.372,0.646,5.725,1.936S147.834,149.714,147.834,152.07z
			 M137.47,159.904c0.981,0,1.859-0.312,2.631-0.938c0.772-0.625,1.373-1.516,1.802-2.671c0.428-1.156,0.643-2.476,0.643-3.957
			c0-1.116-0.241-1.962-0.724-2.538c-0.481-0.576-1.155-0.863-2.021-0.863h-0.951l-2.303,10.967H137.47z"/>
		<path fill="#E6E6E5" d="M154.182,164.243h-5.183l3.201-15.172h5.209L154.182,164.243z M152.829,145.736
			c0-0.919,0.266-1.615,0.797-2.089c0.531-0.473,1.274-0.71,2.229-0.71c0.812,0,1.439,0.163,1.882,0.489
			c0.441,0.326,0.662,0.792,0.662,1.399c0,0.893-0.259,1.582-0.776,2.068c-0.518,0.487-1.263,0.73-2.236,0.73
			C153.682,147.625,152.829,146.995,152.829,145.736z"/>
		<path fill="#E6E6E5" d="M169.675,148.803c0.5,0,0.857,0.036,1.071,0.107l-1.124,5.129c-0.482-0.196-1.031-0.295-1.647-0.295
			c-0.92,0-1.654,0.315-2.203,0.944c-0.549,0.63-0.966,1.592-1.252,2.886l-1.419,6.669h-5.183l3.2-15.172h4.138l-0.241,2.53h0.107
			c0.58-0.999,1.21-1.716,1.889-2.148C167.688,149.02,168.577,148.803,169.675,148.803z"/>
		<path fill="#E6E6E5" d="M177.188,160.347c0.59,0,1.406-0.21,2.451-0.63v3.897c-1.215,0.598-2.732,0.896-4.554,0.896
			c-1.321,0-2.323-0.283-3.006-0.85c-0.683-0.567-1.024-1.498-1.024-2.793c0-0.678,0.107-1.518,0.321-2.517l1.125-5.384h-2.062
			l0.549-2.544l2.92-1.179l1.834-3.214h3.455l-0.656,3.04h3.856l-0.844,3.896h-3.869l-1.125,5.129
			c-0.144,0.688-0.215,1.156-0.215,1.406C176.344,160.065,176.625,160.347,177.188,160.347z"/>
	</g>
	<g>
		<path fill="#FD9B9B" d="M84.524,167.653c-0.315,0-0.649-0.062-1.004-0.188v-0.886c0.348,0.104,0.676,0.156,0.985,0.156
			c0.578,0,1.018-0.174,1.32-0.522c0.303-0.348,0.548-0.957,0.739-1.832l2.423-11.49h-2.02l0.138-0.658l2.02-0.139l0.345-1.577
			c0.23-1.103,0.613-1.904,1.147-2.404c0.536-0.497,1.284-0.747,2.242-0.747c0.479,0,1.025,0.101,1.637,0.306l-0.246,0.788
			c-0.572-0.179-1.056-0.266-1.45-0.266c-0.631,0-1.135,0.174-1.512,0.526c-0.378,0.351-0.655,0.938-0.833,1.759l-0.345,1.615h2.443
			l-0.158,0.797h-2.444l-2.483,11.727c-0.216,1.058-0.558,1.828-1.024,2.31C85.979,167.412,85.339,167.653,84.524,167.653z"/>
		<path fill="#FD9B9B" d="M98.539,151.908c0.453,0,0.857,0.047,1.212,0.138l-0.207,0.915c-0.31-0.098-0.68-0.147-1.114-0.147
			c-0.617,0-1.205,0.21-1.763,0.632c-0.56,0.42-1.062,1.052-1.509,1.891c-0.446,0.842-0.775,1.752-0.985,2.729l-0.986,4.74h-0.966
			l2.276-10.711h0.789l-0.285,2.009h0.059c0.479-0.615,0.883-1.062,1.213-1.334c0.328-0.272,0.678-0.484,1.049-0.634
			C97.693,151.983,98.099,151.908,98.539,151.908z"/>
		<path fill="#FD9B9B" d="M105.317,151.888c1.183,0,2.098,0.357,2.744,1.069c0.647,0.714,0.971,1.696,0.971,2.95
			c0,1.295-0.234,2.504-0.704,3.631c-0.47,1.128-1.111,1.986-1.926,2.578s-1.755,0.886-2.819,0.886
			c-1.208,0-2.126-0.359-2.753-1.078c-0.628-0.721-0.941-1.749-0.941-3.089c0-1.256,0.239-2.43,0.72-3.528
			c0.479-1.096,1.126-1.941,1.94-2.533C103.363,152.185,104.286,151.888,105.317,151.888z M105.239,152.735
			c-0.814,0-1.547,0.257-2.197,0.772s-1.17,1.257-1.557,2.219c-0.389,0.962-0.581,1.981-0.581,3.06c0,2.245,0.926,3.368,2.778,3.368
			c0.834,0,1.574-0.255,2.222-0.764s1.163-1.256,1.547-2.245c0.384-0.988,0.577-2.075,0.577-3.256c0-1.014-0.24-1.79-0.72-2.337
			C106.828,153.008,106.139,152.735,105.239,152.735z"/>
		<path fill="#FD9B9B" d="M117.003,162.806l1.449-6.642c0.164-0.821,0.246-1.353,0.246-1.596c0-1.196-0.507-1.795-1.518-1.795
			c-0.696,0-1.354,0.224-1.971,0.665c-0.617,0.444-1.14,1.064-1.566,1.859c-0.428,0.795-0.756,1.736-0.985,2.828l-0.985,4.68h-0.966
			l2.275-10.711h0.789l-0.326,2.069h0.06c0.525-0.743,1.122-1.301,1.789-1.676c0.666-0.373,1.364-0.561,2.094-0.561
			c0.696,0,1.231,0.219,1.605,0.661c0.375,0.439,0.572,1.08,0.592,1.919h0.059c0.506-0.846,1.101-1.488,1.783-1.926
			c0.685-0.436,1.413-0.654,2.188-0.654c0.768,0,1.367,0.201,1.798,0.604c0.43,0.404,0.645,0.984,0.645,1.741
			c0,0.189-0.008,0.375-0.024,0.556s-0.08,0.573-0.191,1.179l-1.498,6.798h-0.985l1.469-6.7c0.164-0.79,0.245-1.365,0.245-1.733
			c0-0.507-0.141-0.899-0.423-1.179s-0.674-0.42-1.173-0.42c-1.031,0-1.942,0.453-2.733,1.357c-0.793,0.901-1.346,2.094-1.661,3.57
			l-1.074,5.104H117.003z"/>
	</g>
</g>
</svg>
