<?xml version="1.0" encoding="utf-8"?>
<!-- Generator: Adobe Illustrator 15.0.0, SVG Export Plug-In . SVG Version: 6.00 Build 0)  -->
<!DOCTYPE svg PUBLIC "-//W3C//DTD SVG 1.1//EN" "http://www.w3.org/Graphics/SVG/1.1/DTD/svg11.dtd">
<svg version="1.1" id="Layer_1" xmlns="http://www.w3.org/2000/svg" xmlns:xlink="http://www.w3.org/1999/xlink" x="0px" y="0px"
	 width="725px" height="80px" viewBox="0 0 725 80" enable-background="new 0 0 725 80" xml:space="preserve">
<g>
	<g transform="translate(0 0)">
		<g id="icon-driving">
			<path fill="#E8E8E8" d="M29.917,13.535h-0.411l-4.569-8.273c-0.197-0.358-0.694-0.651-1.103-0.651H9.973
				c-0.409,0-0.906,0.293-1.103,0.651L4.3,13.535H3.89c-0.818,0-1.487,0.669-1.487,1.487v7.436c0,0.818,0.669,1.487,1.487,1.487
				h1.487v2.231c0,1.227,1.003,2.231,2.231,2.231h0.743c1.227,0,2.231-1.003,2.231-2.231v-2.231h12.642v2.231
				c0,1.227,1.003,2.231,2.231,2.231h0.743c1.227,0,2.231-1.003,2.231-2.231v-2.231h1.487c0.818,0,1.487-0.669,1.487-1.487v-7.436
				C31.404,14.204,30.735,13.535,29.917,13.535z M6.493,19.485c-1.027,0-1.859-0.832-1.859-1.859c0-1.028,0.832-1.859,1.859-1.859
				c1.027,0,1.859,0.832,1.859,1.859S7.521,19.485,6.493,19.485z M7.981,13.535l3.014-6.026c0.183-0.367,0.667-0.666,1.076-0.666
				h9.667c0.409,0,0.893,0.299,1.076,0.666l3.014,6.026H7.981z M27.315,19.485c-1.028,0-1.859-0.832-1.859-1.859
				c0-1.028,0.832-1.859,1.859-1.859s1.859,0.832,1.859,1.859S28.341,19.485,27.315,19.485z"/>
		</g>
	</g>
	<g transform="translate(48 0)">
		<g id="icon-email">
			<path fill="#E8E8E8" d="M49.882,5.12c-1.882,0-0.941,0.499,0,1.263L64,17.128L78.118,6.416c0.942-0.765,1.882-1.297,0-1.297
				L49.882,5.12L49.882,5.12z M48,7.645v15.826c0,0.931,0.952,2.129,1.706,2.129h28.589c0.754,0,1.706-1.197,1.706-2.129V7.645
				l-16,12.208L48,7.645L48,7.645z"/>
		</g>
	</g>
	<g transform="translate(96 0)">
		<g id="icon-navigate">
			<path fill="#E8E8E8" d="M116.811,30.788l-4.526-13.508H97.576l28.287-15.875L116.811,30.788z"/>
		</g>
	</g>
	<g transform="translate(144 0)">
		<g id="icon-geolocation">
			<path fill="#E8E8E8" d="M160,0.64c-8.47,0-15.36,6.89-15.36,15.36s6.89,15.36,15.36,15.36c8.469,0,15.36-6.891,15.36-15.36
				S168.469,0.64,160,0.64z M161.92,28.64v-5.6h-3.84v5.6c-5.52-0.837-9.883-5.2-10.72-10.72h5.6v-3.84h-5.6
				c0.837-5.52,5.2-9.883,10.72-10.72v5.6h3.84v-5.6c5.52,0.837,9.883,5.2,10.72,10.72h-5.6v3.84h5.6
				C171.803,23.44,167.44,27.803,161.92,28.64z"/>
		</g>
	</g>
	<g transform="translate(192 0)">
		<g id="icon-flag">
			<path fill="#E8E8E8" d="M199.336,0.64c-0.872,0-1.576,0.721-1.576,1.617v27.485c0,0.808,0.788,1.617,1.576,1.617
				s1.575-0.81,1.575-1.617V13.17c0.538-0.235,1.062-0.405,1.576-0.405c3.151,0,7.798,4.043,11.028,4.043
				c1.377,0,3.348-0.557,4.726-1.617V3.873c-1.563,1.203-3.146,2.426-4.726,2.426c-3.151,0-7.866-4.042-11.028-4.042
				c-0.531,0-1.05,0.097-1.576,0.202V2.257C200.911,1.362,200.208,0.64,199.336,0.64z"/>
		</g>
	</g>
	<g transform="translate(240 0)">
		<g id="icon-transit">
			<path fill="#E8E8E8" d="M266.344,16h-20.493c-0.597,0-1.089-0.513-1.089-1.097c0-0.097,0.018-0.207,0.038-0.296l1.091-7.615
				c0.093-0.495,0.538-0.592,1.071-0.592h18.274c0.529,0,0.979,0.089,1.07,0.582l1.091,7.754c0.017,0.09,0.038,0.143,0.038,0.241
				C267.434,15.561,266.94,16,266.344,16z M265.524,24.541c-1.154,0-2.09-0.908-2.09-2.04c0-1.125,0.936-2.031,2.09-2.031
				c1.146,0,2.084,0.907,2.084,2.031C267.608,23.633,266.67,24.541,265.524,24.541z M246.643,24.541
				c-1.146,0-2.082-0.908-2.082-2.04c0-1.125,0.936-2.031,2.082-2.031c1.157,0,2.091,0.907,2.091,2.031
				C248.734,23.633,247.8,24.541,246.643,24.541z M250.24,1.92h12.8v1.92h-12.8C248.96,3.84,248.96,1.92,250.24,1.92z
				 M268.289,4.858c-0.374-1.8-1.466-2.525-3.247-3.25c-1.778-0.722-5.898-1.587-8.997-1.587c-3.112,0-7.254,0.866-9.034,1.587
				c-1.78,0.725-2.854,1.45-3.225,3.25l-1.227,10.022v13.921h1.92v1.28c0,2.56,3.2,2.56,3.2,0v-1.28h16v1.28
				c0,2.56,3.84,2.56,3.84,0v-1.28h1.92V14.88L268.289,4.858L268.289,4.858z"/>
		</g>
	</g>
	<g transform="translate(290 0)">
		<g id="icon-walking">
			<path fill="#E8E8E8" d="M305.261,6.047c1.288-0.034,2.303-1.13,2.269-2.438c-0.034-1.325-1.101-2.353-2.39-2.329
				c-1.282,0.035-2.296,1.13-2.269,2.445C302.904,5.04,303.979,6.081,305.261,6.047L305.261,6.047z M313.171,13.946l-3.411-1.905
				l-2.824-4.491c-0.453-0.577-1.161-1.004-1.969-0.994c-0.607,0.021-1.142,0.3-1.569,0.676l-4.254,4.347
				c-0.14,0.15-0.237,0.341-0.27,0.55l-0.545,4.788c-0.006,0.052-0.006,0.095-0.01,0.147c0.017,0.594,0.501,1.055,1.081,1.044
				c0.545-0.013,0.961-0.485,1.021-1.003l0.448-4.109l1.482-1.506l-1.325,11.515l-2.457,5.433c-0.074,0.191-0.15,0.458-0.144,0.71
				c0.024,0.888,0.748,1.591,1.619,1.571c0.617-0.017,1.119-0.397,1.389-0.936l2.632-5.864c0.053-0.157,0.24-0.54,0.246-0.713
				l0.307-2.838l2.71,9.23c0.233,0.645,0.828,1.133,1.542,1.113c0.868-0.024,1.562-0.759,1.542-1.65
				c-0.007-0.116-0.041-0.191-0.047-0.325l-3.766-12.799l0.481-4.159l1.062,1.68c0.073,0.109,0.173,0.212,0.287,0.283l3.725,2.086
				c0.18,0.058,0.321,0.106,0.486,0.106c0.589-0.017,1.049-0.512,1.036-1.11c-0.012-0.366-0.214-0.701-0.508-0.879L313.171,13.946z"
				/>
		</g>
	</g>
	<g transform="translate(338 0)">
		<g id="icon-bicycling">
			<path fill="#E8E8E8" d="M345.234,27.613c2.681,0,4.854-2.23,4.854-4.975c0-2.753-2.173-4.984-4.854-4.984
				c-2.675,0-4.85,2.231-4.85,4.984C340.384,25.383,342.559,27.613,345.234,27.613z M339.28,22.638c0-3.377,2.671-6.109,5.954-6.109
				c3.292,0,5.958,2.733,5.958,6.109c0,3.375-2.666,6.101-5.958,6.101C341.951,28.739,339.28,26.014,339.28,22.638z M362.769,27.674
				c2.67,0,4.847-2.23,4.847-4.977c0-2.751-2.177-4.982-4.847-4.982c-2.682,0-4.859,2.23-4.859,4.982
				C357.91,25.443,360.087,27.674,362.769,27.674z M356.806,22.698c0-3.375,2.671-6.107,5.962-6.107c3.28,0,5.951,2.732,5.951,6.108
				c0,3.37-2.671,6.102-5.951,6.102C359.477,28.801,356.806,26.069,356.806,22.698L356.806,22.698z M356.825,7.789
				c1.236,0,2.241-1.024,2.241-2.291S358.061,3.2,356.825,3.2c-1.236,0-2.241,1.03-2.241,2.298S355.588,7.789,356.825,7.789z
				 M356.919,13.44c-0.325,0-0.675-0.195-0.933-0.615l-1.455-2.351l-3.002,3.041l2.781,1.494c1.145,0.562,0.97,1.587,0.97,1.587
				v6.461c0,0.733-0.566,1.329-1.28,1.329s-1.28-0.596-1.28-1.329v-5.172l-4.835-2.746c-0.575-0.332-0.969-0.963-0.969-1.681
				c0-0.495,0.177-0.95,0.481-1.288l4.735-4.861c0.588-0.685,1.407-0.576,1.407-0.576c0.992,0,1.514,0.888,1.514,0.888l2.356,3.953
				l3.63-0.007c1.28,0,1.28,1.874,0,1.874L356.919,13.44L356.919,13.44z"/>
		</g>
	</g>
	<g transform="translate(386 0)">
		<g id="icon-cross">
			<path fill="#E8E8E8" d="M411.333,5.333c0.382,0,0.699,0.126,0.953,0.38c0.253,0.253,0.38,0.571,0.38,0.953
				c0,0.375-0.128,0.691-0.385,0.948l-8.396,8.385l8.396,8.385c0.257,0.257,0.385,0.573,0.385,0.948c0,0.382-0.127,0.7-0.38,0.953
				c-0.254,0.253-0.571,0.38-0.953,0.38c-0.375,0-0.691-0.128-0.948-0.385L402,17.884l-8.385,8.396
				c-0.257,0.257-0.572,0.385-0.948,0.385c-0.382,0-0.7-0.127-0.953-0.38c-0.253-0.253-0.38-0.571-0.38-0.953
				c0-0.375,0.129-0.691,0.385-0.948l8.396-8.385l-8.396-8.385c-0.256-0.257-0.385-0.573-0.385-0.948c0-0.382,0.127-0.7,0.38-0.953
				s0.571-0.38,0.953-0.38c0.376,0,0.691,0.128,0.948,0.385L402,14.114l8.385-8.396C410.642,5.461,410.958,5.333,411.333,5.333z"/>
		</g>
	</g>
	<g transform="translate(434 0)">
		<g id="icon-menu">
			<path fill="#E8E8E8" d="M438,6.667h24c0.368,0,0.683,0.13,0.943,0.391s0.391,0.575,0.391,0.943s-0.13,0.682-0.391,0.943
				S462.368,9.335,462,9.335h-24c-0.368,0-0.683-0.13-0.943-0.391s-0.391-0.575-0.391-0.943s0.13-0.682,0.391-0.943
				S437.632,6.667,438,6.667z M438,22.667h24c0.368,0,0.683,0.13,0.943,0.391s0.391,0.575,0.391,0.943s-0.13,0.683-0.391,0.943
				c-0.261,0.261-0.575,0.391-0.943,0.391h-24c-0.368,0-0.683-0.13-0.943-0.391c-0.261-0.26-0.391-0.575-0.391-0.943
				s0.13-0.682,0.391-0.943S437.632,22.667,438,22.667z M438,14.667h24c0.368,0,0.683,0.13,0.943,0.391s0.391,0.575,0.391,0.943
				s-0.13,0.682-0.391,0.943s-0.575,0.391-0.943,0.391h-24c-0.368,0-0.683-0.13-0.943-0.391s-0.391-0.575-0.391-0.943
				s0.13-0.682,0.391-0.943S437.632,14.667,438,14.667z"/>
		</g>
	</g>
	<g transform="translate(482 0)">
		<g id="icon-twitter">
			<path fill="#E8E8E8" d="M510.929,7.286c-0.797,1.167-1.762,2.161-2.893,2.982c0.012,0.167,0.018,0.417,0.018,0.75
				c0,1.547-0.226,3.092-0.679,4.634s-1.141,3.021-2.063,4.437c-0.922,1.416-2.021,2.669-3.295,3.759
				c-1.273,1.09-2.81,1.959-4.606,2.607c-1.798,0.648-3.72,0.972-5.769,0.973c-3.226,0-6.178-0.863-8.856-2.589
				c0.416,0.047,0.881,0.071,1.393,0.071c2.679,0,5.066-0.821,7.161-2.464c-1.25-0.024-2.369-0.408-3.356-1.152
				c-0.988-0.744-1.667-1.693-2.036-2.848c0.393,0.06,0.755,0.089,1.089,0.089c0.512,0,1.018-0.065,1.518-0.196
				c-1.333-0.274-2.438-0.938-3.312-1.991c-0.876-1.053-1.313-2.277-1.313-3.67v-0.071c0.81,0.453,1.679,0.697,2.607,0.732
				c-0.786-0.524-1.411-1.208-1.875-2.054c-0.464-0.846-0.696-1.762-0.696-2.75c0-1.047,0.262-2.018,0.786-2.911
				c1.44,1.774,3.193,3.194,5.259,4.259c2.065,1.065,4.277,1.658,6.634,1.777c-0.095-0.453-0.143-0.893-0.143-1.321
				c0-1.595,0.562-2.955,1.688-4.08c1.126-1.125,2.485-1.687,4.08-1.688c1.667,0,3.071,0.607,4.215,1.821
				c1.297-0.25,2.518-0.714,3.66-1.393c-0.44,1.369-1.285,2.429-2.535,3.179c1.106-0.12,2.214-0.417,3.32-0.893L510.929,7.286z"/>
		</g>
	</g>
	<g transform="translate(528 0)">
		<g id="icon-facebook">
			<path fill="#E8E8E8" d="M537.125,9.929h4.589L541.178,15h-4.054v14.714h-6.089V15h-3.036V9.929h3.036V6.875
				c0-2.167,0.512-3.807,1.536-4.92c1.023-1.113,2.708-1.67,5.054-1.67h4.054v5.071h-2.536c-0.464,0-0.836,0.039-1.115,0.116
				c-0.28,0.077-0.482,0.217-0.607,0.42s-0.205,0.408-0.241,0.616s-0.054,0.503-0.054,0.884V9.929L537.125,9.929z"/>
		</g>
	</g>
	<g transform="translate(558 0)">
		<g id="icon-github">
			<path fill="#E8E8E8" d="M585.429,16c0,2.988-0.872,5.676-2.616,8.063c-1.743,2.387-3.996,4.039-6.759,4.955
				c-0.321,0.059-0.556,0.018-0.705-0.125c-0.148-0.143-0.223-0.321-0.223-0.536v-3.768c0-1.154-0.31-2-0.929-2.536
				c0.679-0.072,1.288-0.179,1.83-0.321c0.541-0.143,1.101-0.375,1.679-0.696s1.06-0.717,1.446-1.188
				c0.386-0.471,0.701-1.096,0.945-1.875c0.245-0.779,0.367-1.675,0.366-2.688c0-1.441-0.47-2.667-1.411-3.679
				c0.441-1.083,0.394-2.297-0.143-3.643c-0.334-0.107-0.815-0.042-1.446,0.196c-0.631,0.238-1.178,0.5-1.643,0.786l-0.68,0.429
				c-1.106-0.31-2.25-0.464-3.429-0.464s-2.321,0.154-3.429,0.464c-0.19-0.131-0.444-0.292-0.759-0.482
				c-0.315-0.191-0.812-0.42-1.491-0.688s-1.19-0.349-1.536-0.241c-0.524,1.346-0.565,2.56-0.125,3.643
				c-0.94,1.012-1.411,2.238-1.411,3.679c0,1.012,0.122,1.905,0.366,2.679s0.557,1.399,0.938,1.875
				c0.382,0.476,0.861,0.875,1.438,1.196s1.137,0.553,1.679,0.696s1.152,0.25,1.83,0.321c-0.476,0.429-0.768,1.042-0.875,1.839
				c-0.25,0.119-0.518,0.208-0.804,0.268c-0.286,0.059-0.626,0.089-1.019,0.089s-0.782-0.128-1.17-0.384
				c-0.387-0.256-0.718-0.628-0.99-1.116c-0.227-0.381-0.516-0.69-0.866-0.929c-0.352-0.239-0.646-0.381-0.884-0.429l-0.357-0.054
				c-0.25,0-0.423,0.027-0.518,0.08c-0.096,0.053-0.125,0.122-0.09,0.205c0.036,0.083,0.09,0.167,0.161,0.25
				c0.071,0.083,0.148,0.155,0.232,0.214l0.125,0.089c0.262,0.12,0.521,0.346,0.776,0.679c0.257,0.333,0.444,0.637,0.563,0.911
				l0.179,0.411c0.155,0.453,0.417,0.819,0.786,1.098s0.769,0.458,1.196,0.536s0.842,0.12,1.241,0.125s0.729-0.016,0.99-0.063
				l0.411-0.071c0,0.453,0.003,0.982,0.01,1.589c0.006,0.606,0.009,0.928,0.009,0.964c0,0.214-0.077,0.393-0.232,0.536
				c-0.154,0.143-0.393,0.185-0.714,0.125c-2.762-0.917-5.015-2.568-6.759-4.955S558,18.985,558,15.996
				c0-2.488,0.613-4.783,1.839-6.884c1.227-2.101,2.89-3.765,4.991-4.991s4.396-1.839,6.884-1.839s4.783,0.613,6.884,1.839
				c2.102,1.226,3.766,2.89,4.991,4.991c1.227,2.102,1.839,4.396,1.839,6.884L585.429,16z"/>
		</g>
	</g>
	<g transform="translate(606 0)">
		<g id="icon-rss">
			<path fill="#E8E8E8" d="M612.857,24c0,0.953-0.334,1.762-1,2.429c-0.667,0.667-1.477,1-2.43,1c-0.952,0-1.762-0.333-2.429-1
				c-0.667-0.667-1-1.477-1-2.429s0.333-1.762,1-2.429c0.667-0.667,1.477-1,2.429-1c0.953,0,1.763,0.333,2.43,1
				C612.523,22.238,612.857,23.047,612.857,24z M622,26.196c0.024,0.333-0.077,0.619-0.304,0.857
				c-0.214,0.25-0.494,0.375-0.839,0.375h-2.411c-0.298,0-0.554-0.099-0.769-0.295c-0.215-0.196-0.333-0.443-0.356-0.741
				c-0.263-2.726-1.36-5.057-3.295-6.991s-4.266-3.033-6.991-3.295c-0.298-0.024-0.545-0.143-0.741-0.357s-0.295-0.47-0.295-0.768
				V12.57c0-0.345,0.125-0.625,0.375-0.839c0.202-0.203,0.459-0.304,0.768-0.304h0.09c1.904,0.155,3.726,0.634,5.464,1.438
				c1.737,0.804,3.279,1.884,4.625,3.241c1.357,1.345,2.438,2.887,3.24,4.625C621.364,22.469,621.844,24.291,622,26.196L622,26.196z
				 M631.143,26.232c0.024,0.321-0.083,0.601-0.32,0.839c-0.214,0.238-0.488,0.357-0.821,0.357h-2.554
				c-0.31,0-0.574-0.104-0.795-0.313c-0.221-0.209-0.337-0.462-0.349-0.759c-0.143-2.559-0.744-4.991-1.804-7.295
				s-2.438-4.304-4.134-6s-3.696-3.074-6-4.134c-2.304-1.06-4.736-1.667-7.295-1.821c-0.298-0.012-0.551-0.128-0.759-0.348
				c-0.209-0.22-0.313-0.479-0.313-0.777V3.427c0-0.333,0.119-0.607,0.357-0.821c0.214-0.214,0.476-0.321,0.785-0.321h0.055
				c3.119,0.154,6.104,0.869,8.955,2.143c2.851,1.274,5.383,3.024,7.598,5.25c2.226,2.214,3.976,4.747,5.25,7.598
				C630.273,20.127,630.987,23.112,631.143,26.232L631.143,26.232z"/>
		</g>
	</g>
	<g transform="translate(647 0)">
		<g id="icon-site">
			<path fill="#E8E8E8" d="M673,21.714c0-0.476-0.167-0.88-0.5-1.214l-3.714-3.714c-0.333-0.333-0.738-0.5-1.214-0.5
				c-0.5,0-0.929,0.19-1.286,0.571c0.036,0.036,0.148,0.146,0.339,0.33s0.318,0.312,0.384,0.384
				c0.066,0.072,0.155,0.185,0.269,0.339c0.112,0.154,0.189,0.306,0.231,0.455c0.042,0.149,0.063,0.313,0.063,0.491
				c0,0.476-0.167,0.881-0.5,1.214c-0.334,0.333-0.738,0.5-1.214,0.5c-0.179,0-0.343-0.021-0.491-0.063s-0.301-0.119-0.455-0.232
				s-0.268-0.202-0.339-0.268c-0.071-0.066-0.199-0.194-0.384-0.384c-0.186-0.19-0.295-0.303-0.33-0.339
				c-0.393,0.369-0.59,0.804-0.59,1.304c0,0.476,0.167,0.881,0.5,1.214l3.68,3.696c0.321,0.321,0.726,0.482,1.214,0.482
				c0.476,0,0.881-0.155,1.214-0.464l2.625-2.607c0.333-0.333,0.5-0.732,0.5-1.196L673,21.714z M660.446,9.125
				c0-0.476-0.167-0.881-0.5-1.214l-3.68-3.696c-0.333-0.333-0.737-0.5-1.214-0.5c-0.464,0-0.868,0.161-1.214,0.482l-2.625,2.607
				c-0.333,0.333-0.5,0.732-0.5,1.196c0,0.476,0.167,0.881,0.5,1.214l3.714,3.714c0.321,0.321,0.727,0.482,1.214,0.482
				c0.5,0,0.929-0.185,1.286-0.554c-0.036-0.036-0.148-0.146-0.339-0.33c-0.189-0.184-0.317-0.312-0.384-0.384
				c-0.066-0.072-0.155-0.185-0.268-0.339c-0.113-0.154-0.19-0.306-0.232-0.455s-0.063-0.313-0.063-0.491
				c0-0.476,0.167-0.88,0.5-1.214c0.334-0.333,0.738-0.5,1.215-0.5c0.179,0,0.342,0.021,0.49,0.063
				c0.149,0.042,0.301,0.119,0.455,0.232c0.155,0.113,0.268,0.202,0.339,0.268s0.199,0.194,0.385,0.384
				c0.185,0.19,0.294,0.303,0.33,0.339c0.393-0.37,0.589-0.804,0.589-1.304H660.446z M676.429,21.714
				c0,1.429-0.506,2.637-1.518,3.625l-2.625,2.607c-0.988,0.988-2.196,1.482-3.625,1.482c-1.44,0-2.655-0.506-3.644-1.518
				l-3.679-3.696c-0.988-0.988-1.481-2.196-1.481-3.625c0-1.464,0.523-2.708,1.57-3.732l-1.57-1.571
				c-1.024,1.047-2.263,1.571-3.715,1.571c-1.429,0-2.643-0.5-3.643-1.5l-3.714-3.714c-1-1-1.5-2.214-1.5-3.643
				s0.506-2.637,1.518-3.625l2.625-2.607c0.988-0.988,2.196-1.482,3.625-1.482c1.441,0,2.655,0.506,3.644,1.518l3.679,3.696
				c0.988,0.988,1.482,2.196,1.482,3.625c0,1.464-0.524,2.708-1.571,3.732l1.571,1.571c1.023-1.047,2.262-1.571,3.714-1.571
				c1.429,0,2.643,0.5,3.643,1.5l3.714,3.714C675.929,19.071,676.429,20.285,676.429,21.714z"/>
		</g>
	</g>
	<g transform="translate(693 0)">
		<g id="icon-pinterest">
			<path fill="#E8E8E8" d="M720.429,16c0,2.488-0.612,4.783-1.839,6.884c-1.226,2.102-2.89,3.765-4.991,4.991
				c-2.101,1.226-4.396,1.839-6.884,1.839c-1.321,0-2.619-0.19-3.893-0.571c0.702-1.107,1.167-2.083,1.393-2.929
				c0.107-0.404,0.429-1.661,0.964-3.768c0.238,0.464,0.673,0.866,1.305,1.205c0.631,0.339,1.31,0.509,2.035,0.509
				c1.441,0,2.727-0.408,3.857-1.223s2.006-1.938,2.625-3.366c0.619-1.428,0.929-3.036,0.929-4.821c0-1.357-0.354-2.631-1.062-3.821
				s-1.735-2.161-3.08-2.911s-2.862-1.125-4.554-1.125c-1.25,0-2.417,0.172-3.5,0.518c-1.084,0.345-2.003,0.804-2.76,1.375
				c-0.756,0.571-1.404,1.229-1.945,1.973c-0.542,0.744-0.94,1.515-1.196,2.313c-0.256,0.798-0.384,1.596-0.384,2.393
				c0,1.238,0.237,2.328,0.714,3.268c0.476,0.941,1.172,1.602,2.089,1.982c0.357,0.143,0.584,0.024,0.679-0.357
				c0.024-0.083,0.072-0.268,0.144-0.554c0.071-0.286,0.119-0.465,0.143-0.536c0.071-0.274,0.006-0.53-0.196-0.768
				c-0.606-0.726-0.91-1.625-0.91-2.696c0-1.797,0.622-3.342,1.865-4.634c1.244-1.292,2.872-1.938,4.885-1.938
				c1.797,0,3.198,0.488,4.205,1.464c1.006,0.976,1.509,2.244,1.509,3.804c0,2.024-0.408,3.744-1.224,5.161
				c-0.814,1.417-1.859,2.125-3.134,2.125c-0.726,0-1.31-0.259-1.75-0.777c-0.44-0.518-0.577-1.14-0.411-1.866
				c0.096-0.417,0.253-0.973,0.474-1.67c0.22-0.697,0.398-1.31,0.536-1.839c0.137-0.529,0.205-0.979,0.204-1.348
				c0-0.596-0.16-1.089-0.481-1.482c-0.321-0.393-0.779-0.589-1.375-0.589c-0.738,0-1.363,0.339-1.875,1.018
				s-0.769,1.524-0.769,2.536c0,0.869,0.149,1.596,0.446,2.179l-1.768,7.464c-0.203,0.833-0.28,1.887-0.232,3.161
				c-2.452-1.083-4.435-2.756-5.946-5.018c-1.511-2.262-2.267-4.78-2.268-7.554c0-2.488,0.613-4.783,1.839-6.884
				c1.227-2.102,2.89-3.765,4.991-4.991s4.396-1.839,6.884-1.839s4.783,0.613,6.884,1.839c2.102,1.226,3.766,2.89,4.991,4.991
				C719.816,11.218,720.429,13.513,720.429,16L720.429,16z"/>
		</g>
	</g>
	<g transform="translate(0 48)">
		<g id="icon-google-plus">
			<path fill="#E8E8E8" d="M15.643,74.161c0-0.25-0.027-0.491-0.08-0.724c-0.053-0.231-0.11-0.445-0.17-0.643
				s-0.165-0.402-0.313-0.615c-0.149-0.215-0.274-0.396-0.375-0.546c-0.102-0.149-0.259-0.325-0.473-0.526
				c-0.214-0.203-0.377-0.354-0.491-0.455c-0.114-0.102-0.304-0.254-0.571-0.455c-0.267-0.202-0.452-0.34-0.554-0.411
				c-0.102-0.072-0.298-0.209-0.589-0.411c-0.291-0.202-0.472-0.327-0.545-0.375c-0.203-0.023-0.5-0.036-0.893-0.036
				c-0.643,0-1.273,0.042-1.893,0.125c-0.619,0.083-1.262,0.231-1.929,0.446c-0.667,0.214-1.25,0.487-1.75,0.82
				c-0.5,0.334-0.911,0.78-1.232,1.34c-0.321,0.559-0.482,1.195-0.482,1.91c0,0.811,0.211,1.533,0.634,2.17
				c0.423,0.638,0.976,1.138,1.661,1.5C6.283,77.639,7,77.91,7.75,78.089c0.75,0.18,1.506,0.269,2.268,0.269
				c0.703,0,1.372-0.074,2.009-0.224c0.637-0.148,1.235-0.38,1.795-0.696c0.56-0.314,1.003-0.752,1.33-1.312
				S15.643,74.91,15.643,74.161z M13.5,58.768c0-0.713-0.098-1.473-0.295-2.276s-0.477-1.581-0.839-2.33
				c-0.363-0.749-0.863-1.368-1.5-1.856c-0.638-0.489-1.349-0.733-2.134-0.732c-1.107,0-1.964,0.41-2.571,1.232
				c-0.607,0.82-0.911,1.803-0.911,2.945c0,0.56,0.068,1.148,0.205,1.768s0.348,1.238,0.634,1.857c0.286,0.619,0.62,1.176,1,1.67
				c0.381,0.494,0.845,0.896,1.393,1.205s1.125,0.463,1.732,0.464c1.155,0,1.991-0.36,2.509-1.08S13.5,59.959,13.5,58.768z
				 M11.161,50.286h7.804l-2.411,1.411h-2.411c0.845,0.535,1.5,1.285,1.964,2.25c0.464,0.964,0.696,1.97,0.696,3.018
				c0,0.881-0.137,1.664-0.411,2.348c-0.274,0.686-0.607,1.236-1,1.652c-0.393,0.417-0.786,0.801-1.179,1.152
				c-0.393,0.352-0.727,0.715-1,1.089s-0.41,0.776-0.411,1.205c0,0.31,0.099,0.612,0.295,0.911c0.196,0.298,0.453,0.584,0.768,0.857
				c0.315,0.272,0.664,0.559,1.045,0.856s0.762,0.628,1.143,0.991c0.38,0.362,0.729,0.756,1.045,1.179s0.572,0.929,0.768,1.519
				c0.196,0.588,0.294,1.223,0.295,1.901c0,1.905-0.833,3.583-2.5,5.036c-1.81,1.559-4.31,2.339-7.5,2.339
				c-0.703,0-1.414-0.06-2.134-0.179c-0.72-0.119-1.446-0.318-2.179-0.598C3.115,78.945,2.469,78.6,1.91,78.188
				c-0.56-0.41-1.018-0.94-1.375-1.588c-0.357-0.648-0.536-1.372-0.536-2.17c0-0.727,0.22-1.53,0.661-2.412
				c0.38-0.762,0.952-1.42,1.714-1.973s1.625-0.977,2.589-1.268c0.964-0.293,1.887-0.507,2.768-0.644
				c0.881-0.136,1.774-0.217,2.679-0.241c-0.762-0.988-1.143-1.875-1.143-2.66c0-0.143,0.012-0.283,0.036-0.42
				c0.024-0.138,0.053-0.254,0.089-0.349c0.035-0.095,0.083-0.223,0.143-0.384c0.06-0.162,0.102-0.289,0.125-0.385
				c-0.476,0.061-0.893,0.09-1.25,0.09c-1.774,0-3.295-0.584-4.563-1.75c-1.268-1.167-1.902-2.631-1.902-4.393
				c0-1.667,0.565-3.158,1.696-4.474c1.13-1.315,2.523-2.157,4.179-2.526c1.12-0.238,2.232-0.357,3.339-0.357L11.161,50.286z
				 M29.714,54.857v2.285h-4.571v4.571h-2.286v-4.571h-4.571v-2.285h4.571v-4.571h2.286v4.571H29.714z"/>
		</g>
	</g>
	<g transform="translate(48 48)">
		<g id="icon-linkedin">
			<path fill="#E8E8E8" d="M54.232,59.161v17.696h-5.893V59.161H54.232z M54.607,53.695c0.012,0.87-0.289,1.596-0.902,2.18
				s-1.42,0.875-2.42,0.875h-0.036c-0.976,0-1.762-0.291-2.357-0.875s-0.893-1.31-0.893-2.18c0-0.88,0.307-1.609,0.92-2.188
				s1.414-0.867,2.402-0.865c0.988,0,1.78,0.289,2.375,0.865C54.292,52.084,54.595,52.814,54.607,53.695z M75.429,66.714v10.144
				h-5.875v-9.465c0-1.25-0.241-2.229-0.723-2.938s-1.235-1.062-2.259-1.062c-0.75,0-1.378,0.205-1.884,0.615
				s-0.884,0.92-1.134,1.527c-0.131,0.357-0.196,0.84-0.196,1.445v9.875h-5.875c0.024-4.75,0.036-8.601,0.036-11.554
				c0-2.952-0.006-4.714-0.018-5.286l-0.018-0.856h5.875v2.571h-0.036c0.238-0.381,0.482-0.715,0.732-1
				c0.25-0.287,0.586-0.596,1.009-0.93c0.423-0.333,0.941-0.592,1.554-0.777c0.613-0.184,1.295-0.276,2.045-0.276
				c2.036,0,3.673,0.676,4.911,2.026c1.238,1.352,1.857,3.331,1.857,5.938L75.429,66.714z"/>
		</g>
	</g>
	<g transform="translate(96 48)">
		<g id="icon-youtube">
			<path fill="#E8E8E8" d="M118.857,64c0-0.44-0.179-0.762-0.536-0.964l-9.143-5.714c-0.37-0.238-0.756-0.25-1.161-0.036
				c-0.393,0.214-0.589,0.548-0.589,1v11.429c0,0.453,0.196,0.786,0.589,1c0.19,0.096,0.375,0.143,0.554,0.143
				c0.238,0,0.44-0.059,0.607-0.178l9.143-5.715C118.678,64.762,118.857,64.441,118.857,64L118.857,64z M128,64
				c0,1.143-0.006,2.035-0.018,2.68c-0.012,0.643-0.062,1.455-0.152,2.438s-0.224,1.859-0.402,2.634
				c-0.191,0.869-0.602,1.602-1.232,2.196c-0.63,0.594-1.369,0.939-2.214,1.035c-2.643,0.298-6.637,0.447-11.982,0.447
				s-9.339-0.149-11.982-0.447c-0.845-0.095-1.586-0.439-2.223-1.035s-1.05-1.328-1.241-2.196c-0.167-0.774-0.295-1.651-0.384-2.634
				s-0.14-1.795-0.152-2.438C96.006,66.035,96,65.143,96,64s0.006-2.035,0.018-2.68c0.012-0.643,0.062-1.455,0.152-2.438
				s0.224-1.859,0.402-2.634c0.191-0.869,0.602-1.602,1.232-2.196c0.63-0.594,1.369-0.939,2.214-1.035
				c2.643-0.298,6.637-0.447,11.982-0.447s9.339,0.149,11.982,0.447c0.845,0.095,1.586,0.439,2.223,1.035s1.05,1.328,1.241,2.196
				c0.167,0.774,0.295,1.651,0.384,2.634s0.14,1.795,0.152,2.438C127.994,61.965,128,62.857,128,64z"/>
		</g>
	</g>
	<g transform="translate(144 48)">
		<g id="icon-stack-overflow">
			<path fill="#E8E8E8" d="M160.571,73.018v2.696l-12.625,0.019v-2.696L160.571,73.018z M164.875,66.839v12.519l-0.018,0.625V80
				L144,79.982V66.839h2.161v11.036h16.571V66.839H164.875z M148.304,68.411l12.571,1.161l-0.232,2.679l-12.589-1.161
				L148.304,68.411z M149.518,62.768l12.196,3.269l-0.696,2.606l-12.196-3.268L149.518,62.768z M152.429,56.536l10.875,6.429
				l-1.375,2.321l-10.875-6.429L152.429,56.536z M158.857,50.625l7.107,10.445l-2.214,1.519l-7.125-10.429L158.857,50.625z
				 M166.946,48l2.161,12.445l-2.661,0.465l-2.161-12.446L166.946,48z"/>
		</g>
	</g>
	<g transform="translate(192 48)">
		<g id="icon-skype">
			<path fill="#E8E8E8" d="M212.946,66.982c0-0.596-0.116-1.141-0.348-1.635s-0.521-0.901-0.866-1.223s-0.78-0.613-1.304-0.875
				c-0.524-0.262-1.015-0.465-1.473-0.607s-0.979-0.279-1.563-0.41l-1.857-0.43c-0.357-0.083-0.62-0.146-0.786-0.188
				s-0.375-0.11-0.625-0.205s-0.429-0.189-0.536-0.286s-0.206-0.222-0.295-0.375s-0.134-0.333-0.134-0.536
				c0-0.916,0.857-1.375,2.571-1.375c0.512,0,0.97,0.071,1.375,0.214c0.405,0.144,0.726,0.312,0.964,0.509
				c0.238,0.197,0.464,0.396,0.679,0.599s0.453,0.374,0.714,0.518s0.547,0.215,0.857,0.214c0.56,0,1.009-0.189,1.348-0.57
				s0.509-0.84,0.509-1.375c0-0.654-0.333-1.247-1-1.777c-0.667-0.529-1.512-0.932-2.536-1.205s-2.107-0.41-3.25-0.411
				c-0.81,0-1.595,0.093-2.357,0.277c-0.762,0.185-1.474,0.464-2.134,0.839s-1.19,0.893-1.589,1.555
				c-0.399,0.66-0.598,1.426-0.598,2.295c0,0.726,0.113,1.359,0.339,1.901c0.226,0.542,0.56,0.991,1,1.349
				c0.441,0.355,0.917,0.645,1.429,0.865s1.125,0.414,1.839,0.58l2.607,0.643c1.072,0.263,1.738,0.477,2,0.644
				c0.381,0.237,0.571,0.595,0.571,1.071c0,0.464-0.238,0.848-0.714,1.152c-0.476,0.303-1.101,0.455-1.875,0.454
				c-0.607,0-1.152-0.095-1.634-0.286c-0.482-0.19-0.869-0.42-1.161-0.688s-0.563-0.536-0.813-0.805
				c-0.25-0.268-0.523-0.496-0.821-0.688c-0.297-0.19-0.619-0.286-0.964-0.286c-0.596,0-1.045,0.179-1.348,0.536
				s-0.455,0.804-0.455,1.339c0,1.096,0.727,2.033,2.179,2.813c1.453,0.779,3.185,1.17,5.196,1.17c0.87,0,1.703-0.11,2.5-0.33
				c0.797-0.221,1.527-0.539,2.188-0.955c0.662-0.416,1.188-0.974,1.58-1.67c0.392-0.697,0.588-1.479,0.589-2.348L212.946,66.982z
				 M219.429,70.857c0,1.893-0.67,3.508-2.009,4.848s-2.955,2.009-4.848,2.009c-1.547,0-2.94-0.476-4.179-1.429
				c-0.917,0.19-1.81,0.285-2.679,0.285c-1.703,0-3.331-0.33-4.884-0.99s-2.893-1.554-4.018-2.68
				c-1.125-1.125-2.019-2.464-2.679-4.018c-0.661-1.553-0.991-3.182-0.991-4.884c0-0.869,0.095-1.763,0.286-2.679
				c-0.953-1.238-1.429-2.631-1.429-4.18c0-1.893,0.669-3.508,2.009-4.848s2.956-2.009,4.848-2.009c1.547,0,2.94,0.476,4.179,1.429
				c0.917-0.19,1.81-0.286,2.679-0.286c1.703,0,3.331,0.331,4.884,0.991c1.553,0.66,2.893,1.554,4.018,2.68
				c1.125,1.125,2.018,2.464,2.679,4.018c0.661,1.553,0.991,3.182,0.991,4.884c0,0.869-0.096,1.763-0.286,2.679
				C218.953,67.916,219.429,69.309,219.429,70.857z"/>
		</g>
	</g>
	<g transform="translate(240 48)">
		<g id="icon-vk">
			<path fill="#E8E8E8" d="M274.232,57.286c0.274,0.762-0.619,2.512-2.679,5.25c-0.286,0.38-0.673,0.887-1.161,1.519
				c-0.929,1.189-1.464,1.97-1.607,2.338c-0.203,0.488-0.12,0.971,0.25,1.446c0.203,0.25,0.685,0.738,1.446,1.464h0.018l0.071,0.071
				c1.679,1.56,2.816,2.874,3.411,3.946c0.036,0.059,0.075,0.133,0.116,0.223c0.041,0.09,0.083,0.247,0.125,0.473
				c0.042,0.227,0.039,0.429-0.009,0.607c-0.048,0.179-0.197,0.342-0.446,0.491c-0.25,0.148-0.601,0.223-1.054,0.223l-4.571,0.071
				c-0.286,0.059-0.62,0.029-1-0.09c-0.381-0.118-0.69-0.249-0.929-0.393l-0.357-0.214c-0.357-0.25-0.774-0.631-1.25-1.144
				c-0.476-0.512-0.884-0.973-1.223-1.383c-0.339-0.411-0.702-0.756-1.089-1.037c-0.387-0.279-0.723-0.371-1.009-0.276
				c-0.036,0.012-0.084,0.032-0.143,0.063c-0.06,0.029-0.161,0.115-0.304,0.258c-0.143,0.144-0.271,0.318-0.384,0.527
				s-0.214,0.519-0.304,0.93c-0.09,0.41-0.128,0.871-0.116,1.384c0,0.179-0.021,0.343-0.063,0.491s-0.087,0.258-0.134,0.33
				l-0.071,0.088c-0.214,0.227-0.529,0.357-0.946,0.394h-2.054c-0.845,0.048-1.714-0.051-2.607-0.295
				c-0.893-0.244-1.675-0.56-2.348-0.946s-1.286-0.779-1.839-1.179c-0.554-0.399-0.973-0.741-1.259-1.026l-0.446-0.43
				c-0.12-0.119-0.283-0.298-0.491-0.536c-0.208-0.237-0.634-0.779-1.277-1.625c-0.644-0.845-1.274-1.743-1.893-2.696
				c-0.619-0.951-1.348-2.207-2.188-3.768s-1.617-3.179-2.33-4.857c-0.071-0.19-0.107-0.352-0.107-0.481
				c0-0.131,0.018-0.226,0.054-0.286l0.071-0.107c0.179-0.226,0.518-0.338,1.018-0.338l4.893-0.037
				c0.143,0.024,0.28,0.062,0.411,0.117c0.131,0.053,0.227,0.104,0.286,0.151l0.089,0.054c0.19,0.131,0.333,0.321,0.429,0.571
				c0.238,0.595,0.512,1.212,0.821,1.849c0.309,0.636,0.553,1.121,0.732,1.454l0.286,0.519c0.346,0.714,0.679,1.332,1,1.856
				s0.61,0.932,0.866,1.224c0.256,0.291,0.503,0.52,0.741,0.688c0.238,0.168,0.44,0.251,0.607,0.25c0.167,0,0.327-0.03,0.482-0.089
				c0.024-0.013,0.054-0.042,0.089-0.089s0.107-0.179,0.214-0.393c0.107-0.215,0.188-0.495,0.241-0.84
				c0.053-0.344,0.11-0.826,0.17-1.445s0.06-1.363,0-2.232c-0.024-0.477-0.078-0.91-0.161-1.305c-0.083-0.393-0.167-0.666-0.25-0.82
				l-0.107-0.214c-0.297-0.405-0.803-0.661-1.518-0.769c-0.154-0.023-0.125-0.166,0.089-0.429c0.203-0.226,0.429-0.405,0.679-0.536
				c0.631-0.309,2.053-0.452,4.268-0.429c0.976,0.012,1.78,0.089,2.411,0.231c0.238,0.06,0.437,0.141,0.598,0.242
				c0.161,0.101,0.282,0.244,0.366,0.428c0.083,0.186,0.146,0.375,0.188,0.572c0.042,0.195,0.063,0.467,0.063,0.812
				s-0.006,0.674-0.018,0.982c-0.012,0.309-0.027,0.728-0.045,1.258c-0.018,0.531-0.027,1.022-0.027,1.474
				c0,0.13-0.006,0.38-0.018,0.75c-0.012,0.369-0.015,0.655-0.009,0.856c0.006,0.203,0.027,0.443,0.063,0.724
				c0.036,0.28,0.104,0.512,0.205,0.696c0.101,0.184,0.235,0.33,0.402,0.438c0.095,0.023,0.196,0.048,0.304,0.071
				c0.107,0.022,0.262-0.042,0.464-0.196c0.202-0.154,0.428-0.359,0.679-0.615c0.25-0.258,0.561-0.656,0.929-1.197
				c0.369-0.54,0.773-1.18,1.214-1.92c0.714-1.237,1.351-2.576,1.911-4.018c0.047-0.119,0.107-0.224,0.179-0.312
				c0.072-0.09,0.138-0.152,0.196-0.188l0.071-0.054l0.089-0.045c0,0,0.078-0.019,0.232-0.055c0.154-0.035,0.273-0.039,0.357-0.009
				l5.143-0.036c0.464-0.059,0.845-0.044,1.143,0.045c0.298,0.09,0.483,0.188,0.554,0.295L274.232,57.286z"/>
		</g>
	</g>
	<g transform="translate(290 48)">
		<g id="icon-arrow-down">
			<path fill="#E8E8E8" d="M294.131,56.962c-0.434-0.429-1.134-0.429-1.566,0c-0.432,0.427-0.432,1.122,0,1.55l12.653,12.528
				c0.434,0.429,1.133,0.429,1.566,0l12.653-12.528c0.432-0.429,0.434-1.121,0-1.55c-0.434-0.428-1.136-0.429-1.566-0.002
				l-11.87,11.426L294.131,56.962L294.131,56.962z"/>
		</g>
	</g>
	<g transform="translate(338 48)">
		<g id="icon-direction">
			<path fill="#E8E8E8" d="M366,52.33h-10.38l3.117,3.117l-7.356,7.355h-0.01V75.67h5.593V65.13l5.728-5.728L366,62.709V52.33z
				 M350.824,65.109L342,56.285l3.955-3.955l7.632,7.632l-2.752,2.752h-0.011V65.109z"/>
		</g>
	</g>
</g>
</svg>
